<svg xmlns="http://www.w3.org/2000/svg" viewBox="0 0 512 512">
  <rect width="512" height="512" rx="40" fill="#4A5340"/>
  <g transform="translate(38.40,177.53) scale(0.3633)">
    <path d="M145.00,279.50 L145.00,216.00 L221.00,216.00 L297.00,216.00 L297.00,279.50 L297.00,343.00 L394.50,343.00 L492.00,343.00 L492.00,319.00 L492.00,295.00 L424.50,295.00 L357.00,295.00 L357.00,255.01 L357.00,215.02 L407.75,214.76 L458.50,214.50 L458.77,192.25 L459.04,170.00 L408.02,170.00 L357.00,170.00 L357.00,139.00 L357.00,108.00 L423.50,108.00 L490.00,108.00 L490.00,84.00 L490.00,60.00 L393.50,60.00 L297.00,60.00 L297.00,116.00 L297.00,172.00 L221.00,172.00 L145.00,172.00 L145.00,140.00 L145.00,108.00 L208.00,108.00 L271.00,108.00 L271.00,84.00 L271.00,60.00 L178.00,60.00 L85.00,60.00 L85.00,201.50 L85.00,343.00 L115.00,343.00 L145.00,343.00 L145.00,279.50 Z M579.00,225.44 L579.00,107.89 L583.22,108.19 L587.45,108.50 L590.67,117.00 C592.45,121.67 598.92,139.00 605.04,155.50 C611.17,172.00 619.81,195.18 624.25,207.00 C628.68,218.82 632.88,230.07 633.57,232.00 C634.26,233.93 639.17,247.20 644.47,261.50 C649.78,275.80 656.10,292.90 658.52,299.50 C660.94,306.10 665.57,318.48 668.81,327.00 L674.71,342.50 L727.60,342.50 L780.50,342.50 L780.50,201.50 L780.50,60.50 L753.00,60.50 L725.50,60.50 L725.25,177.81 L724.99,295.11 L720.77,294.81 L716.55,294.50 L711.23,280.50 C708.31,272.80 704.38,262.23 702.50,257.00 C700.63,251.78 696.78,241.43 693.96,234.00 C691.14,226.57 687.10,215.78 684.98,210.00 C682.86,204.22 679.34,194.78 677.14,189.00 C674.95,183.22 668.15,165.00 662.03,148.50 C655.92,132.00 650.45,117.39 649.88,116.03 C649.31,114.67 645.69,105.00 641.83,94.53 C637.98,84.06 633.48,72.01 631.84,67.75 L628.85,60.00 L576.43,60.00 L524.00,60.00 L524.00,201.50 L524.00,343.00 L551.50,343.00 L579.00,343.00 L579.00,225.44 Z M878.00,225.50 L878.00,108.00 L882.35,108.00 L886.70,108.00 L897.01,135.75 C902.68,151.01 909.90,170.47 913.04,179.00 C916.19,187.53 924.47,209.80 931.46,228.50 C938.45,247.20 945.90,267.23 948.02,273.00 C952.22,284.40 968.45,327.94 971.97,337.25 L974.14,343.00 L1027.07,343.00 L1080.00,343.00 L1080.00,201.50 L1080.00,60.00 L1052.50,60.00 L1025.01,60.00 L1024.75,177.25 L1024.50,294.50 L1020.14,294.50 C1016.08,294.50 1015.68,294.26 1014.43,291.00 C1013.69,289.07 1005.38,266.80 995.96,241.50 C978.05,193.39 953.16,126.69 937.55,85.00 L928.38,60.50 L875.94,60.50 L823.50,60.50 L823.25,201.75 L822.99,343.00 L850.50,343.00 L878.00,343.00 L878.00,225.50 Z" fill="#FFFFFF"/>
  </g>
</svg>
